<svg xmlns="http://www.w3.org/2000/svg" width="70" height="12" viewBox="0 0 70 12"><g><g><path fill="#f7c703" d="M9.76 11.975a.397.397 0 0 1-.186-.047l-3.397-1.81-3.397 1.81a.396.396 0 0 1-.423-.03.41.41 0 0 1-.159-.399l.649-3.834L.098 4.949a.411.411 0 0 1-.101-.417.403.403 0 0 1 .324-.276l3.798-.56L5.817.207c.135-.277.585-.277.72 0l1.698 3.49 3.798.559c.152.022.277.13.324.276a.411.411 0 0 1-.101.417L9.507 7.665l.649 3.834a.41.41 0 0 1-.16.398.398.398 0 0 1-.235.078z"/></g><g><path fill="#f7c703" d="M24.349 11.975a.397.397 0 0 1-.187-.047l-3.397-1.81-3.397 1.81a.397.397 0 0 1-.423-.03.41.41 0 0 1-.159-.399l.649-3.834-2.749-2.716a.412.412 0 0 1-.101-.417.403.403 0 0 1 .324-.276l3.798-.56L20.406.207c.134-.277.584-.277.719 0l1.699 3.49 3.798.559c.15.022.276.13.323.276a.411.411 0 0 1-.101.417l-2.749 2.716.65 3.834a.41.41 0 0 1-.16.398.398.398 0 0 1-.236.078z"/></g><g><path fill="#f7c703" d="M38.937 11.975a.397.397 0 0 1-.187-.047l-3.397-1.81-3.397 1.81a.397.397 0 0 1-.422-.03.41.41 0 0 1-.16-.399l.649-3.834-2.749-2.716a.411.411 0 0 1-.101-.417.403.403 0 0 1 .324-.276l3.798-.56L34.994.207c.134-.277.584-.277.719 0l1.699 3.49 3.798.559c.15.022.276.13.323.276a.411.411 0 0 1-.101.417l-2.749 2.716.65 3.834a.41.41 0 0 1-.16.398.399.399 0 0 1-.236.078z"/></g><g><path fill="#c6c6c6" d="M53.525 11.975a.398.398 0 0 1-.187-.047l-3.397-1.81-3.397 1.81a.397.397 0 0 1-.422-.03.41.41 0 0 1-.16-.399l.649-3.834-2.749-2.716a.411.411 0 0 1-.101-.417.403.403 0 0 1 .324-.276l3.798-.56L49.582.207c.134-.277.584-.277.719 0L52 3.697l3.798.559c.15.022.276.13.324.276a.411.411 0 0 1-.102.417l-2.748 2.716.648 3.834a.41.41 0 0 1-.16.398.398.398 0 0 1-.235.078z"/></g><g><path fill="#c6c6c6" d="M67.384 11.975a.397.397 0 0 1-.187-.047l-3.397-1.81-3.397 1.81a.397.397 0 0 1-.423-.03.41.41 0 0 1-.16-.399l.65-3.834-2.749-2.716a.412.412 0 0 1-.102-.417.403.403 0 0 1 .325-.276l3.797-.56 1.7-3.489c.134-.277.584-.277.718 0l1.7 3.49 3.797.559c.152.022.277.13.324.276a.411.411 0 0 1-.101.417L67.13 7.665l.649 3.834a.41.41 0 0 1-.16.398.398.398 0 0 1-.235.078z"/></g></g></svg>