<svg xmlns="http://www.w3.org/2000/svg" width="18" height="17" viewBox="0 0 18 17"><g><g><path fill="#6a6a6a" d="M7.06 13.935c-3.894 0-7.061-3.125-7.061-6.967C-.001 3.126 3.166 0 7.06 0s7.061 3.126 7.061 6.968a6.876 6.876 0 0 1-1.534 4.331l5.14 4.339a.766.766 0 0 1 .085 1.09.788.788 0 0 1-1.105.085l-5.228-4.414a7.087 7.087 0 0 1-4.419 1.536zm0-12.388c-3.03 0-5.494 2.432-5.494 5.42 0 2.99 2.464 5.422 5.494 5.422s5.494-2.432 5.494-5.421c0-2.99-2.464-5.421-5.494-5.421z"/><path fill="#989898" d="M7.06 13.935c-3.894 0-7.061-3.125-7.061-6.967C-.001 3.126 3.166 0 7.06 0s7.061 3.126 7.061 6.968a6.876 6.876 0 0 1-1.534 4.331l5.14 4.339a.766.766 0 0 1 .085 1.09.788.788 0 0 1-1.105.085l-5.228-4.414a7.087 7.087 0 0 1-4.419 1.536zm0-12.388c-3.03 0-5.494 2.432-5.494 5.42 0 2.99 2.464 5.422 5.494 5.422s5.494-2.432 5.494-5.421c0-2.99-2.464-5.421-5.494-5.421z"/></g></g></svg>