<svg xmlns="http://www.w3.org/2000/svg" width="86" height="27" viewBox="0 0 86 27"><g><g><path fill="#6a6a6a" d="M13.297 16.704c0 1.762-.612 3.127-1.838 4.092-1.226.965-3.018 1.448-5.377 1.448a13.935 13.935 0 0 1-3.912-.535c-.506-.15-.944-.303-1.313-.463a8.043 8.043 0 0 1-.857-.42c.158-.48.99-2.446 3.774-1.838.525.115.805.146.904.117.438.05.905.074 1.404.074 1.253 0 2.166-.216 2.737-.647.571-.43.857-1.04.857-1.828 0-.468-.097-.872-.29-1.209a3.077 3.077 0 0 0-.83-.915 6.962 6.962 0 0 0-1.313-.758 18.977 18.977 0 0 0-1.769-.69 23.553 23.553 0 0 1-1.921-.801 6.447 6.447 0 0 1-1.631-1.083A4.96 4.96 0 0 1 .788 9.702C.502 9.102.36 8.38.36 7.536c0-1.761.598-3.144 1.797-4.148C3.355 2.386 4.986 1.884 7.05 1.884c1.198 0 2.262.136 3.193.408.93.272 1.747.588 2.282.907l-.224.55c-.351.66-1.187 1.66-2.983 1.485l-.015-.003a9.447 9.447 0 0 0-2.308-.282c-.94 0-1.673.198-2.198.591-.525.394-.789.947-.789 1.66 0 .43.087.8.264 1.11.174.31.423.586.745.83.323.243.7.469 1.135.675.432.206.907.402 1.423.59.902.337 1.709.68 2.419 1.026.71.348 1.309.76 1.796 1.238.489.478.862 1.04 1.12 1.687.258.647.387 1.43.387 2.348zm14.996-3.15v8.268H24.9V14.09c0-.788-.031-1.458-.133-2.011-.1-.553-.249-1.002-.48-1.35-.23-.346-.536-.6-.923-.76-.387-.158-.86-.239-1.432-.239-.442 0-.885.048-1.344.142a8.72 8.72 0 0 0-1.004.253v11.698h-3.393V2.762s.023-1.692 1.607-2.446l.066-.01h.001L19.585 0v7.283c.339-.13.776-.242 1.265-.337.489-.094.953-.14 1.432-.14 1.161 0 2.124.163 2.89.491.765.33 1.378.788 1.84 1.378.46.59.79 1.298.985 2.123.193.825.296 1.743.296 2.756zm17.07.9c0 1.163-.165 2.221-.497 3.178-.332.956-.801 1.772-1.41 2.447a6.331 6.331 0 0 1-2.197 1.574c-.858.375-1.802.563-2.834.563s-1.972-.188-2.82-.563a6.353 6.353 0 0 1-2.183-1.574c-.609-.675-1.084-1.491-1.424-2.447-.342-.957-.512-2.015-.512-3.178 0-1.162.17-2.216.512-3.163.34-.947.82-1.758 1.437-2.433a6.35 6.35 0 0 1 2.198-1.561c.847-.365 1.778-.548 2.792-.548 1.014 0 1.95.183 2.805.548.858.366 1.59.886 2.198 1.561.609.675 1.082 1.486 1.424 2.433.34.947.511 2 .511 3.163zm-3.427 0c0-1.462-.309-2.619-.926-3.473-.618-.852-1.48-1.28-2.585-1.28-1.106 0-1.968.428-2.585 1.28-.618.854-.925 2.011-.925 3.473 0 1.482.307 2.653.925 3.516.617.862 1.48 1.293 2.585 1.293s1.967-.431 2.585-1.293c.617-.863.926-2.034.926-3.516zm19.903.029c0 1.125-.142 2.156-.428 3.092-.286.938-.696 1.745-1.23 2.419a5.476 5.476 0 0 1-2.005 1.575c-.802.375-1.71.563-2.724.563-.682 0-1.31-.084-1.882-.253-.57-.17-1.072-.356-1.411-.563v2.77c0 .197-.01.383-.03.555 0 .015-.003.029-.005.044-.169 1.417-.944 2.02-1.703 2.234-.138.04-.274.065-.407.081h-1.248V7.593c.678-.188 1.548-.366 2.541-.534a19.15 19.15 0 0 1 3.18-.253c1.142 0 2.164.178 3.068.534a6.397 6.397 0 0 1 2.307 1.532c.637.666 1.125 1.472 1.466 2.419.34.947.511 2.01.511 3.192zm-3.428.056c0-1.519-.337-2.7-1.01-3.544-.673-.843-1.755-1.266-3.248-1.266-.314 0-.642.015-.982.043a5.53 5.53 0 0 0-1.012.183v8.409c.339.206.688.398 1.176.576a4.536 4.536 0 0 0 1.565.267c1.217 0 2.106-.422 2.669-1.266.562-.843.842-1.978.842-3.402zM69.026 2.812c0 .637-.202 1.144-.607 1.519a2.05 2.05 0 0 1-1.438.563 2.08 2.08 0 0 1-1.466-.563c-.405-.375-.607-.882-.607-1.519 0-.656.202-1.171.607-1.546a2.08 2.08 0 0 1 1.466-.563 2.05 2.05 0 0 1 1.438.563c.405.375.607.89.607 1.546zm-.354 4.283v14.727H65.28V9.895s.037-2.8 3.393-2.8zM86 14.454c0 1.163-.166 2.221-.498 3.178-.332.956-.802 1.772-1.41 2.447a6.32 6.32 0 0 1-2.198 1.574c-.856.375-1.802.563-2.833.563-1.033 0-1.973-.188-2.82-.563a6.364 6.364 0 0 1-2.184-1.574c-.608-.675-1.082-1.491-1.424-2.447-.34-.957-.511-2.015-.511-3.178 0-1.162.17-2.216.511-3.163.342-.947.82-1.758 1.438-2.433a6.36 6.36 0 0 1 2.197-1.561c.849-.365 1.78-.548 2.793-.548 1.013 0 1.949.183 2.806.548.856.366 1.59.886 2.198 1.561.607.675 1.082 1.486 1.423 2.433.341.947.512 2 .512 3.163zm-3.428 0c0-1.462-.309-2.619-.927-3.473-.617-.852-1.478-1.28-2.584-1.28s-1.967.428-2.585 1.28c-.617.854-.926 2.011-.926 3.473 0 1.482.309 2.653.926 3.516.618.862 1.479 1.293 2.585 1.293 1.106 0 1.967-.431 2.584-1.293.618-.863.927-2.034.927-3.516z"/></g></g></svg>